<svg xmlns="http://www.w3.org/2000/svg" width="30" height="30" viewBox="0 0 30 30"><path fill="#FFF" d="M8.37 10.643l2.898 2.898c.525.525 1.339-.289.814-.814L9.183 9.829c-.525-.526-1.339.288-.813.814z"/><path fill="#FFF" d="M9.183 13.541l2.898-2.898c.525-.525-.288-1.339-.813-.814L8.37 12.727c-.526.525.288 1.339.813.814zm8.736-2.898l2.897 2.898c.525.525 1.34-.289.813-.814l-2.897-2.898c-.525-.526-1.337.288-.813.814z"/><path fill="#FFF" d="M18.732 13.541l2.897-2.898c.524-.525-.288-1.339-.813-.814l-2.897 2.898c-.524.525.288 1.339.813.814zm-2.367 4.922c-.081 1.439-2.264 1.439-2.345 0-.081-1.438 2.264-1.434 2.345 0 .027.492.795.494.767 0-.062-1.086-.868-1.82-1.94-1.875-1.069-.056-1.883.872-1.939 1.875-.061 1.083.96 1.825 1.939 1.876 1.07.056 1.883-.873 1.94-1.876.028-.494-.739-.492-.767 0z"/></svg>