<svg xmlns="http://www.w3.org/2000/svg" width="30" height="30" viewBox="0 0 30 30"><path fill="#adb6bf" d="M14.124 23.254c-.207 0-.417-.05-.612-.148a1.597 1.597 0 0 1-.781-.922l-.521-1.592-1.518.525a1.572 1.572 0 0 1-1.202-.062 1.32 1.32 0 0 1-.684-.757c-.25-.726.188-1.539.978-1.813l1.549-.537-1.006-3.049-1.496.52a1.581 1.581 0 0 1-1.202-.062 1.326 1.326 0 0 1-.684-.757c-.25-.725.188-1.539.978-1.813l1.538-.532-.509-1.55c-.262-.796.116-1.639.843-1.88.329-.109.688-.08 1.013.084.364.183.648.52.781.923l.497 1.509 3.068-1.065-.523-1.586c-.262-.796.116-1.639.843-1.88a1.32 1.32 0 0 1 1.013.083c.363.183.648.52.781.923l.51 1.548 1.529-.532a1.577 1.577 0 0 1 1.202.061c.328.159.57.429.684.758.25.725-.188 1.538-.977 1.812l-1.567.544 1.005 3.053 1.515-.529a1.581 1.581 0 0 1 1.202.061c.328.159.57.429.684.757.25.726-.188 1.539-.979 1.813l-1.566.544.537 1.585c.264.796-.115 1.64-.842 1.881a1.323 1.323 0 0 1-1.014-.084 1.591 1.591 0 0 1-.781-.922l-.103-.313a.192.192 0 0 1 .124-.244.193.193 0 0 1 .243.123l.104.313a1.2 1.2 0 0 0 .588.698.94.94 0 0 0 .718.062c.524-.173.792-.798.597-1.392l-.599-1.765a.196.196 0 0 1 .119-.245l1.749-.607c.589-.204.92-.797.739-1.321a.948.948 0 0 0-.488-.536 1.192 1.192 0 0 0-.906-.044l-1.699.593a.188.188 0 0 1-.149-.008.196.196 0 0 1-.098-.113l-.019-.056-1.107-3.366a.186.186 0 0 1 .011-.148.198.198 0 0 1 .115-.097l.037-.012 1.704-.588c.588-.204.92-.797.738-1.321a.942.942 0 0 0-.487-.537 1.198 1.198 0 0 0-.907-.043l-1.704.593a.191.191 0 0 1-.23-.084l-.023-.039a.264.264 0 0 1-.018-.038l-.556-1.692a1.209 1.209 0 0 0-.59-.699.93.93 0 0 0-.717-.062c-.525.174-.792.798-.596 1.392l.56 1.703.021.051a.191.191 0 0 1-.003.152.199.199 0 0 1-.112.103l-3.433 1.191a.194.194 0 0 1-.238-.098l-.013-.027-.01-.024-.549-1.667a1.2 1.2 0 0 0-.587-.699.936.936 0 0 0-.718-.062c-.527.173-.794.797-.599 1.39l.569 1.73a.193.193 0 0 1-.121.243l-1.717.596c-.589.204-.92.797-.739 1.321.08.232.253.421.487.536.273.132.604.148.906.043l1.681-.583a.19.19 0 0 1 .15.01.188.188 0 0 1 .097.113l1.127 3.414c.033.1-.02.208-.118.243l-.023.008-1.708.594c-.588.204-.92.797-.739 1.321.08.231.253.422.487.535.274.134.604.149.907.044l1.673-.581.014-.006a.2.2 0 0 1 .157 0 .195.195 0 0 1 .104.117l.583 1.78c.101.307.315.561.587.697.232.116.487.14.718.062.525-.174.793-.798.597-1.393l-.597-1.807a.193.193 0 0 1 .114-.241l.038-.015.006-.002 3.217-1.12-1.749-5.324-3.071 1.065 1.003 3.048 2.312-.803a.194.194 0 0 1 .247.118.195.195 0 0 1-.12.247l-2.478.86a.197.197 0 0 1-.077.011l-.022-.002a.193.193 0 0 1-.17-.132l-1.122-3.408a.192.192 0 0 1 .12-.243l3.436-1.192c.049-.017.102-.014.148.009s.082.064.099.113l1.833 5.579.039.107a.195.195 0 0 1-.008.148.2.2 0 0 1-.111.099l-3.258 1.135.538 1.628c.263.796-.115 1.64-.842 1.88a1.155 1.155 0 0 1-.399.069z"/><path fill="#adb6bf" d="M3.784 10.212l2.699-1.559-1.54-2.667-.35 1.309a.148.148 0 0 1-.173.104c-.698-.164-1.604-.295-2.399.164C.871 8.227.213 9.53.323 10.793c.237-.697.745-1.347 1.375-1.711.74-.427 1.636-.555 2.346-.334.075.024.12.102.097.178l-.357 1.286zm2.969-1.381l-3.13 1.807a.14.14 0 0 1-.16-.011.146.146 0 0 1-.052-.153l.414-1.489c-.611-.141-1.358-.013-1.982.348C1.075 9.776.51 10.679.468 11.53a.143.143 0 0 1-.125.135.144.144 0 0 1-.157-.099c-.511-1.572.216-3.401 1.691-4.253.833-.48 1.744-.387 2.473-.228l.404-1.51a.14.14 0 0 1 .12-.105.142.142 0 0 1 .145.069l1.787 3.095c.04.07.017.157-.053.197zm19.445 10.968l-2.699 1.559 1.54 2.668.351-1.31a.148.148 0 0 1 .173-.104c.698.163 1.604.294 2.398-.165 1.15-.664 1.809-1.967 1.698-3.23-.237.697-.745 1.348-1.375 1.711-.739.428-1.636.555-2.347.335a.145.145 0 0 1-.096-.178l.357-1.286zm-2.969 1.381l3.13-1.807a.14.14 0 0 1 .16.011.146.146 0 0 1 .051.153l-.414 1.488c.612.141 1.359.014 1.983-.348.768-.443 1.333-1.346 1.374-2.197a.143.143 0 0 1 .126-.135.144.144 0 0 1 .157.1c.511 1.571-.216 3.4-1.691 4.252-.832.48-1.744.387-2.473.229l-.404 1.51a.14.14 0 0 1-.119.105.145.145 0 0 1-.146-.069l-1.786-3.095a.144.144 0 0 1 .052-.197z"/></svg>
