<?xml version="1.0" encoding="UTF-8" standalone="no"?>
<!DOCTYPE svg PUBLIC "-//W3C//DTD SVG 1.1//EN"
 "http://www.w3.org/Graphics/SVG/1.1/DTD/svg11.dtd">
<!-- Generated by graphviz version 2.38.0 (20140413.2041)
 -->
<!-- Title: RobPike Pages: 1 -->
<svg width="1188pt" height="750pt"
 viewBox="0.00 0.00 1188.00 750.00" xmlns="http://www.w3.org/2000/svg" xmlns:xlink="http://www.w3.org/1999/xlink">
<g id="graph0" class="graph" transform="scale(2.43937 2.43937) rotate(0) translate(4 303.457)">
<title>RobPike</title>
<polygon fill="white" stroke="none" points="-4,4 -4,-303.457 483.131,-303.457 483.131,4 -4,4"/>
<!-- 3138060 -->
<g id="node1" class="node"><title>3138060</title>
<ellipse fill="red" stroke="black" cx="276.587" cy="-149.728" rx="91.4341" ry="26.7407"/>
<text text-anchor="middle" x="276.587" y="-153.528" font-family="Times,serif" font-size="14.00" fill="white">Rob Pike</text>
<text text-anchor="middle" x="276.587" y="-138.528" font-family="Times,serif" font-size="14.00" fill="white">x<tspan dy="3" font-size="10.00">RP</tspan></text>
</g>
<!-- 0 -->
<g id="node2" class="node"><title>0</title>
<ellipse fill="none" stroke="black" cx="394.985" cy="-244.741" rx="84.2917" ry="26.7407"/>
<text text-anchor="middle" x="394.985" y="-248.541" font-family="Times,serif" font-size="14.00">golang/go</text>
<text text-anchor="middle" x="394.985" y="-233.541" font-family="Times,serif" font-size="14.00">x<tspan dy="3" font-size="10.00">0</tspan></text>
</g>
<!-- 3138060&#45;&gt;0 -->
<g id="edge1" class="edge"><title>3138060&#45;&gt;0</title>
<path fill="none" stroke="black" d="M308.315,-175.19C322.898,-186.892 340.338,-200.888 355.738,-213.246"/>
<polygon fill="black" stroke="black" points="353.59,-216.01 363.579,-219.539 357.971,-210.55 353.59,-216.01"/>
<text text-anchor="middle" x="357.407" y="-186.132" font-family="Times,serif" font-size="14.00">w<tspan dy="3" font-size="10.00">0→RP</tspan></text>
</g>
<!-- 1 -->
<g id="node3" class="node"><title>1</title>
<ellipse fill="none" stroke="black" cx="187.546" cy="-266.463" rx="84.2917" ry="26.7407"/>
<text text-anchor="middle" x="187.546" y="-270.263" font-family="Times,serif" font-size="14.00">cmars/tools</text>
<text text-anchor="middle" x="187.546" y="-255.263" font-family="Times,serif" font-size="14.00">x<tspan dy="3" font-size="10.00">1</tspan></text>
</g>
<!-- 3138060&#45;&gt;1 -->
<g id="edge2" class="edge"><title>3138060&#45;&gt;1</title>
<path fill="none" stroke="black" d="M256.382,-176.217C243.859,-192.635 227.634,-213.907 214.081,-231.675"/>
<polygon fill="black" stroke="black" points="210.953,-230.005 207.671,-240.079 216.519,-234.251 210.953,-230.005"/>
<text text-anchor="middle" x="205.338" y="-205.195" font-family="Times,serif" font-size="14.00">w<tspan dy="3" font-size="10.00">1→RP</tspan></text>
</g>
<!-- 2 -->
<g id="node4" class="node"><title>2</title>
<ellipse fill="none" stroke="black" cx="84.1457" cy="-149.728" rx="84.2917" ry="26.7407"/>
<text text-anchor="middle" x="84.1457" y="-153.528" font-family="Times,serif" font-size="14.00">cmars/oo</text>
<text text-anchor="middle" x="84.1457" y="-138.528" font-family="Times,serif" font-size="14.00">x<tspan dy="3" font-size="10.00">2</tspan></text>
</g>
<!-- 3138060&#45;&gt;2 -->
<g id="edge3" class="edge"><title>3138060&#45;&gt;2</title>
<path fill="none" stroke="black" d="M185.157,-149.728C182.872,-149.728 180.583,-149.728 178.296,-149.728"/>
<polygon fill="black" stroke="black" points="178.294,-146.228 168.294,-149.728 178.294,-153.228 178.294,-146.228"/>
<text text-anchor="middle" x="174.153" y="-168.528" font-family="Times,serif" font-size="14.00">w<tspan dy="3" font-size="10.00">2→RP</tspan></text>
</g>
<!-- 3 -->
<g id="node5" class="node"><title>3</title>
<ellipse fill="none" stroke="black" cx="187.546" cy="-32.9934" rx="84.2917" ry="26.7407"/>
<text text-anchor="middle" x="187.546" y="-36.7934" font-family="Times,serif" font-size="14.00">onef9day/gowiki</text>
<text text-anchor="middle" x="187.546" y="-21.7934" font-family="Times,serif" font-size="14.00">x<tspan dy="3" font-size="10.00">3</tspan></text>
</g>
<!-- 3138060&#45;&gt;3 -->
<g id="edge4" class="edge"><title>3138060&#45;&gt;3</title>
<path fill="none" stroke="black" d="M256.382,-123.239C243.859,-106.822 227.634,-85.5495 214.081,-67.7817"/>
<polygon fill="black" stroke="black" points="216.519,-65.2059 207.671,-59.3775 210.953,-69.4512 216.519,-65.2059"/>
<text text-anchor="middle" x="210" y="-94.8617" font-family="Times,serif" font-size="14.00">w<tspan dy="3" font-size="10.00">3→RP</tspan></text>
</g>
<!-- 4 -->
<g id="node6" class="node"><title>···</title>
<ellipse fill="none" stroke="black" cx="394.985" cy="-54.7153" rx="84.2917" ry="26.7407"/>
<text text-anchor="middle" x="394.985" y="-58.5153" font-family="Times,serif" font-size="14.00">&gt;50 other</text>
<text text-anchor="middle" x="394.985" y="-43.5153" font-family="Times,serif" font-size="14.00">x<tspan dy="3" font-size="10.00">···</tspan></text>
</g>
<!-- 3138060&#45;&gt;4 -->
<g id="edge5" class="edge"><title>3138060&#45;&gt;4</title>
<path fill="none" stroke="black" d="M308.315,-124.267C322.898,-112.564 340.338,-98.5688 355.738,-86.2104"/>
<polygon fill="black" stroke="black" points="357.971,-88.9064 363.579,-79.9178 353.59,-83.4469 357.971,-88.9064"/>
<text text-anchor="middle" x="364.407" y="-100.925" font-family="Times,serif" font-size="14.00">w<tspan dy="3" font-size="10.00">···→RP</tspan></text>
</g>
</g>
</svg>
