<svg width="1193pt" height="1000" viewBox="0.00 0.00 1193 750" xmlns="http://www.w3.org/2000/svg"><g class="graph" transform="translate(5.786 744.23) scale(1.4465)"><title>Armin Ronacher</title><path fill="#fff" stroke="transparent" d="M-4 4v-518.505h824.807V4H-4z"/><g class="node"><title>6019034</title><ellipse fill="red" stroke="#000" cx="402.707" cy="-255.252" rx="93.726" ry="25.412"/><text text-anchor="middle" x="402.707" y="-258.052" font-family="Times,serif" font-size="14" fill="#fff">Armin Ronacher</text><text text-anchor="middle" x="402.707" y="-244.052" font-family="Times,serif" font-size="14" fill="#fff">x<tspan dy="3" font-size="10">AR</tspan></text></g><g class="node"><title>0</title><ellipse fill="none" stroke="#000" cx="729.522" cy="-421.122" rx="84.622" ry="25.412"/><text text-anchor="middle" x="729.522" y="-423.922" font-family="Times,serif" font-size="14">rust-lang/rust</text><text text-anchor="middle" x="729.522" y="-409.922" font-family="Times,serif" font-size="14">x<tspan dy="3" font-size="10">0</tspan></text></g><g class="edge"><title>0-&gt;6019034</title><path fill="none" stroke="#000" d="M686.123-399.096L456.225-282.415"/><path stroke="#000" d="M457.571-279.173l-10.501 1.405 7.333-7.647 3.168 6.242z"/><text text-anchor="middle" x="545.436" y="-347.23" font-family="Times,serif" font-size="14">w<tspan dy="3" font-size="10">0→AR</tspan></text></g><g class="node"><title>1</title><ellipse fill="none" stroke="#000" cx="531.986" cy="-439.925" rx="93.453" ry="25.412"/><text text-anchor="middle" x="531.986" y="-442.725" font-family="Times,serif" font-size="14">Distrotech/mercurial</text><text text-anchor="middle" x="531.986" y="-428.725" font-family="Times,serif" font-size="14">x<tspan dy="3" font-size="10">1</tspan></text></g><g class="edge"><title>1-&gt;6019034</title><path fill="none" stroke="#000" d="M514.282-414.634l-88.07 125.805"/><path stroke="#000" d="M429.007-286.718l-8.603 6.185 2.868-10.2 5.735 4.015z"/><text text-anchor="middle" x="440.007" y="-351.205" font-family="Times,serif" font-size="14">w<tspan dy="3" font-size="10">1→AR</tspan></text></g><g class="node"><title>2</title><ellipse fill="none" stroke="#000" cx="320.504" cy="-477.563" rx="84.622" ry="25.412"/><text text-anchor="middle" x="320.504" y="-480.363" font-family="Times,serif" font-size="14">openSUSE/salt</text><text text-anchor="middle" x="320.504" y="-466.363" font-family="Times,serif" font-size="14">x<tspan dy="3" font-size="10">2</tspan></text></g><g class="edge"><title>2-&gt;6019034</title><path fill="none" stroke="#000" d="M329.934-452.061l59.764 161.629"/><path stroke="#000" d="M393.075-291.391l.185 10.593-6.75-8.166 6.565-2.427z"/><text text-anchor="middle" x="331.389" y="-370.051" font-family="Times,serif" font-size="14">w<tspan dy="3" font-size="10">2→AR</tspan></text></g><g class="node"><title>3</title><ellipse fill="none" stroke="#000" cx="87.179" cy="-444.195" rx="84.622" ry="25.412"/><text text-anchor="middle" x="87.179" y="-446.995" font-family="Times,serif" font-size="14">celery/celery</text><text text-anchor="middle" x="87.179" y="-432.995" font-family="Times,serif" font-size="14">x<tspan dy="3" font-size="10">3</tspan></text></g><g class="edge"><title>3-&gt;6019034</title><path fill="none" stroke="#000" d="M125.24-421.404l229.345 137.336"/><path stroke="#000" d="M356.74-286.857l6.782 8.14-10.378-2.135 3.596-6.005z"/><text text-anchor="middle" x="194.166" y="-353.579" font-family="Times,serif" font-size="14">w<tspan dy="3" font-size="10">3→AR</tspan></text></g><g class="node"><title>4</title><ellipse fill="none" stroke="#000" cx="109.032" cy="-255.252" rx="95.351" ry="25.412"/><text text-anchor="middle" x="109.032" y="-258.052" font-family="Times,serif" font-size="14">kennethreitz/requests</text><text text-anchor="middle" x="109.032" y="-244.052" font-family="Times,serif" font-size="14">x<tspan dy="3" font-size="10">4</tspan></text></g><g class="edge"><title>4-&gt;6019034</title><path fill="none" stroke="#000" d="M204.607-255.252h94.015"/><path stroke="#000" d="M298.884-258.752l10 3.5-10 3.5v-7z"/><text text-anchor="middle" x="250" y="-263.736" font-family="Times,serif" font-size="14">w<tspan dy="3" font-size="10">4→AR</tspan></text></g><g class="node"><title>5</title><ellipse fill="none" stroke="#000" cx="87.179" cy="-66.309" rx="87.359" ry="25.412"/><text text-anchor="middle" x="87.179" y="-69.109" font-family="Times,serif" font-size="14">cheshire/virtualenv</text><text text-anchor="middle" x="87.179" y="-55.109" font-family="Times,serif" font-size="14">x<tspan dy="3" font-size="10">5</tspan></text></g><g class="edge"><title>5-&gt;6019034</title><path fill="none" stroke="#000" d="M125.554-89.288l229.139-137.213"/><path stroke="#000" d="M353.233-229.707l10.378-2.134-6.781 8.14-3.597-6.006z"/><text text-anchor="middle" x="214.461" y="-164.07" font-family="Times,serif" font-size="14">w<tspan dy="3" font-size="10">5→AR</tspan></text></g><g class="node"><title>6</title><ellipse fill="none" stroke="#000" cx="320.504" cy="-32.941" rx="84.622" ry="25.412"/><text text-anchor="middle" x="320.504" y="-35.741" font-family="Times,serif" font-size="14">pallets/jinja</text><text text-anchor="middle" x="320.504" y="-21.741" font-family="Times,serif" font-size="14">x<tspan dy="3" font-size="10">6</tspan></text></g><g class="edge"><title>6-&gt;6019034</title><path fill="none" stroke="#000" d="M329.934-58.443l59.764-161.63"/><path stroke="#000" d="M386.51-221.54l6.75-8.166-.185 10.593-6.565-2.428z"/><text text-anchor="middle" x="335.389" y="-147.421" font-family="Times,serif" font-size="14">w<tspan dy="3" font-size="10">6→AR</tspan></text></g><g class="node"><title>7</title><ellipse fill="none" stroke="#000" cx="531.986" cy="-70.58" rx="84.622" ry="25.412"/><text text-anchor="middle" x="531.986" y="-73.38" font-family="Times,serif" font-size="14">pallets/flask</text><text text-anchor="middle" x="531.986" y="-59.38" font-family="Times,serif" font-size="14">x<tspan dy="3" font-size="10">7</tspan></text></g><g class="edge"><title>7-&gt;6019034</title><path fill="none" stroke="#000" d="M514.282-95.87l-88.07-125.806"/><path stroke="#000" d="M423.272-219.772l-2.868-10.2 8.603 6.186-5.735 4.014z"/><text text-anchor="middle" x="447.283" y="-146.266" font-family="Times,serif" font-size="14">w<tspan dy="3" font-size="10">7→AR</tspan></text></g><g class="node"><title>8</title><ellipse fill="none" stroke="#000" cx="729.522" cy="-89.382" rx="87.072" ry="25.412"/><text text-anchor="middle" x="729.522" y="-92.183" font-family="Times,serif" font-size="14">&gt;200 other</text><text text-anchor="middle" x="729.522" y="-78.183" font-family="Times,serif" font-size="14">x<tspan dy="3" font-size="10">...</tspan></text></g><g class="edge"><title>8-&gt;6019034</title><path fill="none" stroke="#000" d="M685.785-111.58L456.104-228.151"/><path stroke="#000" d="M454.3-225.141l-7.332-7.647 10.501 1.405-3.168 6.242z"/><text text-anchor="middle" x="600.189" y="-175.716" font-family="Times,serif" font-size="14">w<tspan dy="3" font-size="10">...→AR</tspan></text></g></g></svg>
