<svg width="1584" height="1000" viewBox="0.00 0.00 1188.00 750.00" xmlns="http://www.w3.org/2000/svg"><g class="graph" transform="translate(9.757 740.244) scale(2.43937)"><title>RobPike</title><path fill="#fff" d="M-4 4v-307.457h487.131V4H-4z"/><g class="node"><title>3138060</title><ellipse fill="red" stroke="#000" cx="276.587" cy="-149.728" rx="91.434" ry="26.741"/><text text-anchor="middle" x="276.587" y="-153.528" font-family="Times,serif" font-size="14" fill="#fff">Rob Pike</text><text text-anchor="middle" x="276.587" y="-138.528" font-family="Times,serif" font-size="14" fill="#fff">x<tspan dy="3" font-size="10">RP</tspan></text></g><g class="node"><title>0</title><ellipse fill="none" stroke="#000" cx="394.985" cy="-244.741" rx="84.292" ry="26.741"/><text text-anchor="middle" x="394.985" y="-248.541" font-family="Times,serif" font-size="14">golang/go</text><text text-anchor="middle" x="394.985" y="-233.541" font-family="Times,serif" font-size="14">x<tspan dy="3" font-size="10">0</tspan></text></g><g class="edge"><title>3138060-&gt;0</title><path fill="none" stroke="#000" d="M308.315-175.19l47.423-38.056"/><path stroke="#000" d="M353.59-216.01l9.989-3.529-5.608 8.989-4.381-5.46z"/><text text-anchor="middle" x="357.407" y="-186.132" font-family="Times,serif" font-size="14">w<tspan dy="3" font-size="10">0→RP</tspan></text></g><g class="node"><title>1</title><ellipse fill="none" stroke="#000" cx="187.546" cy="-266.463" rx="84.292" ry="26.741"/><text text-anchor="middle" x="187.546" y="-270.263" font-family="Times,serif" font-size="14">cmars/tools</text><text text-anchor="middle" x="187.546" y="-255.263" font-family="Times,serif" font-size="14">x<tspan dy="3" font-size="10">1</tspan></text></g><g class="edge"><title>3138060-&gt;1</title><path fill="none" stroke="#000" d="M256.382-176.217l-42.301-55.458"/><path stroke="#000" d="M210.953-230.005l-3.282-10.074 8.848 5.828-5.566 4.246z"/><text text-anchor="middle" x="205.338" y="-205.195" font-family="Times,serif" font-size="14">w<tspan dy="3" font-size="10">1→RP</tspan></text></g><g class="node"><title>2</title><ellipse fill="none" stroke="#000" cx="84.146" cy="-149.728" rx="84.292" ry="26.741"/><text text-anchor="middle" x="84.146" y="-153.528" font-family="Times,serif" font-size="14">cmars/oo</text><text text-anchor="middle" x="84.146" y="-138.528" font-family="Times,serif" font-size="14">x<tspan dy="3" font-size="10">2</tspan></text></g><g class="edge"><title>3138060-&gt;2</title><path fill="none" stroke="#000" d="M185.157-149.728h-6.861"/><path stroke="#000" d="M178.294-146.228l-10-3.5 10-3.5v7z"/><text text-anchor="middle" x="174.153" y="-168.528" font-family="Times,serif" font-size="14">w<tspan dy="3" font-size="10">2→RP</tspan></text></g><g class="node"><title>3</title><ellipse fill="none" stroke="#000" cx="187.546" cy="-32.993" rx="84.292" ry="26.741"/><text text-anchor="middle" x="187.546" y="-36.793" font-family="Times,serif" font-size="14">onef9day/gowiki</text><text text-anchor="middle" x="187.546" y="-21.793" font-family="Times,serif" font-size="14">x<tspan dy="3" font-size="10">3</tspan></text></g><g class="edge"><title>3138060-&gt;3</title><path fill="none" stroke="#000" d="M256.382-123.239l-42.301 55.457"/><path stroke="#000" d="M216.519-65.206l-8.848 5.829 3.282-10.074 5.566 4.245z"/><text text-anchor="middle" x="210" y="-94.862" font-family="Times,serif" font-size="14">w<tspan dy="3" font-size="10">3→RP</tspan></text></g><g class="node"><title>···</title><ellipse fill="none" stroke="#000" cx="394.985" cy="-54.715" rx="84.292" ry="26.741"/><text text-anchor="middle" x="394.985" y="-58.515" font-family="Times,serif" font-size="14">&gt;50 other</text><text text-anchor="middle" x="394.985" y="-43.515" font-family="Times,serif" font-size="14">x<tspan dy="3" font-size="10">···</tspan></text></g><g class="edge"><title>3138060-&gt;4</title><path fill="none" stroke="#000" d="M308.315-124.267l47.423 38.057"/><path stroke="#000" d="M357.971-88.906l5.608 8.988-9.989-3.529 4.381-5.46z"/><text text-anchor="middle" x="364.407" y="-100.925" font-family="Times,serif" font-size="14">w<tspan dy="3" font-size="10">···→RP</tspan></text></g></g></svg>
