<?xml version="1.0" encoding="UTF-8" standalone="no"?>
<!DOCTYPE svg PUBLIC "-//W3C//DTD SVG 1.1//EN" "http://www.w3.org/Graphics/SVG/1.1/DTD/svg11.dtd">
<svg width="100%" height="100%" viewBox="0 0 4600 650" version="1.1" xmlns="http://www.w3.org/2000/svg" xmlns:xlink="http://www.w3.org/1999/xlink" xml:space="preserve" style="fill-rule:evenodd;clip-rule:evenodd;stroke-linejoin:round;stroke-miterlimit:1.41421;">
    <g id="Layer1" transform="matrix(1,0,0,1,-330.252,-448.168)">
        <g transform="matrix(1,0,0,1,2863,436.276)">
            <text x="797.846px" y="531.042px" style="font-family:'Lato-Light', 'Lato', sans-serif;font-weight:300;font-size:660px;fill:rgb(30,43,52);">b<tspan x="1171.41px 1341.36px 1711.62px " y="531.042px 531.042px 531.042px ">log</tspan></text>
        </g>
        <g transform="matrix(1,0,0,1,2458,427.276)">
            <rect x="890.938" y="39.831" width="23.438" height="567.708" style="fill:rgb(103,118,128);fill-rule:nonzero;"/>
        </g>
        <g id="Layer-1" transform="matrix(4.16667,0,0,4.16667,-390.784,-1298.32)">
            <path d="M225.93,486.384C224.243,484.172 221.926,482.252 218.978,480.617C216.028,478.986 212.816,478.168 209.34,478.168C206.284,478.168 203.494,478.8 200.966,480.064C198.438,481.328 197.174,483.437 197.174,486.384C197.174,489.334 198.569,491.416 201.361,492.625C204.151,493.837 208.234,495.074 213.606,496.338C216.45,496.97 219.319,497.815 222.217,498.866C225.113,499.92 227.747,501.315 230.117,503.053C232.487,504.791 234.408,506.951 235.884,509.531C237.358,512.113 238.096,515.246 238.096,518.932C238.096,523.569 237.227,527.491 235.489,530.703C233.751,533.918 231.432,536.525 228.537,538.524C225.638,540.527 222.269,541.975 218.425,542.869C214.578,543.763 210.604,544.212 206.496,544.212C200.596,544.212 194.856,543.131 189.274,540.973C183.689,538.816 179.055,535.735 175.37,531.73L187.852,520.038C189.958,522.779 192.696,525.042 196.068,526.832C199.438,528.625 203.178,529.518 207.286,529.518C208.654,529.518 210.051,529.36 211.473,529.044C212.895,528.728 214.211,528.23 215.423,527.543C216.633,526.86 217.608,525.939 218.346,524.778C219.081,523.62 219.452,522.198 219.452,520.512C219.452,517.352 218.003,515.089 215.107,513.718C212.208,512.35 207.864,510.98 202.072,509.61C199.228,508.978 196.463,508.163 193.777,507.161C191.091,506.161 188.694,504.845 186.588,503.211C184.479,501.579 182.796,499.552 181.532,497.128C180.268,494.706 179.636,491.704 179.636,488.122C179.636,483.91 180.505,480.277 182.243,477.22C183.981,474.166 186.272,471.666 189.116,469.715C191.96,467.767 195.172,466.318 198.754,465.37C202.333,464.422 206.022,463.948 209.814,463.948C215.289,463.948 220.637,464.896 225.851,466.792C231.065,468.688 235.198,471.587 238.254,475.482L225.93,486.384Z" style="fill:rgb(32,120,182);fill-rule:nonzero;"/>
            <path d="M215.32,513.266C218.394,514.721 219.952,517.159 219.952,520.513C219.952,522.284 219.553,523.809 218.768,525.046C217.989,526.27 216.947,527.256 215.669,527.979C214.424,528.683 213.049,529.206 211.581,529.533C210.129,529.855 208.684,530.018 207.286,530.018C203.11,530.018 199.257,529.095 195.833,527.274C192.592,525.554 189.891,523.369 187.796,520.776L176.076,531.754C179.64,535.51 184.138,538.453 189.454,540.507C194.956,542.634 200.69,543.712 206.496,543.712C210.538,543.712 214.513,543.265 218.311,542.383C222.073,541.508 225.418,540.071 228.253,538.113C231.071,536.167 233.358,533.594 235.049,530.466C236.739,527.343 237.596,523.462 237.596,518.933C237.596,515.354 236.874,512.274 235.449,509.779C234.013,507.27 232.12,505.142 229.821,503.457C227.503,501.757 224.887,500.37 222.046,499.336C219.169,498.292 216.293,497.448 213.497,496.827C208.111,495.559 203.963,494.301 201.161,493.084C198.184,491.794 196.674,489.54 196.674,486.384C196.674,483.244 198.042,480.967 200.742,479.617C203.328,478.324 206.221,477.668 209.34,477.668C212.882,477.668 216.207,478.514 219.22,480.18C222.029,481.738 224.306,483.579 225.995,485.659L237.566,475.423C234.607,471.8 230.611,469.056 225.68,467.262C220.546,465.395 215.208,464.449 209.814,464.449C206.08,464.449 202.402,464.921 198.882,465.854C195.375,466.782 192.184,468.22 189.399,470.128C186.63,472.027 184.368,474.496 182.677,477.468C180.991,480.433 180.136,484.017 180.136,488.122C180.136,491.607 180.755,494.559 181.975,496.897C183.2,499.246 184.855,501.238 186.894,502.816C188.947,504.41 191.322,505.714 193.951,506.693M206.496,544.712C200.566,544.712 194.711,543.611 189.093,541.44C183.464,539.265 178.723,536.112 175.002,532.069L174.666,531.704L187.912,519.297L188.248,519.734C190.299,522.403 193.009,524.643 196.302,526.391C199.58,528.135 203.276,529.018 207.286,529.018C208.612,529.018 209.984,528.863 211.364,528.556C212.736,528.252 214.018,527.765 215.176,527.108C216.311,526.467 217.235,525.593 217.924,524.51C218.606,523.436 218.952,522.091 218.952,520.513C218.952,517.537 217.624,515.463 214.893,514.17C212.036,512.822 207.683,511.452 201.956,510.097C199.101,509.462 196.288,508.632 193.602,507.63C190.878,506.616 188.415,505.262 186.281,503.606C184.128,501.939 182.381,499.838 181.089,497.359C179.793,494.877 179.136,491.769 179.136,488.122C179.136,483.842 180.035,480.091 181.808,476.974C183.574,473.869 185.938,471.288 188.833,469.303C191.714,467.33 195.008,465.844 198.626,464.887C202.229,463.933 205.993,463.449 209.814,463.449C215.324,463.449 220.778,464.415 226.022,466.323C231.296,468.241 235.544,471.219 238.647,475.174L238.938,475.544L225.859,487.115L225.532,486.687C223.899,484.545 221.612,482.65 218.735,481.055C215.872,479.472 212.711,478.668 209.34,478.668C206.378,478.668 203.635,479.288 201.189,480.512C198.823,481.695 197.674,483.616 197.674,486.384C197.674,489.142 198.945,491.034 201.559,492.166C204.306,493.36 208.398,494.599 213.72,495.851C216.551,496.481 219.469,497.338 222.387,498.396C225.318,499.463 228.018,500.894 230.413,502.65C232.825,504.419 234.811,506.651 236.318,509.283C237.829,511.932 238.596,515.178 238.596,518.933C238.596,523.63 237.698,527.671 235.928,530.941C234.161,534.209 231.77,536.899 228.821,538.936C225.883,540.966 222.423,542.453 218.538,543.356C214.665,544.256 210.614,544.712 206.496,544.712" style="fill:rgb(32,120,182);fill-rule:nonzero;"/>
            <path d="M266.377,503.764C266.377,506.714 266.824,509.664 267.72,512.612C268.614,515.562 269.957,518.196 271.749,520.512C273.539,522.83 275.803,524.726 278.543,526.2C281.281,527.676 284.547,528.412 288.339,528.412C292.131,528.412 295.395,527.676 298.135,526.2C300.873,524.726 303.137,522.83 304.929,520.512C306.719,518.196 308.062,515.562 308.958,512.612C309.852,509.664 310.301,506.714 310.301,503.764C310.301,500.816 309.852,497.893 308.958,494.995C308.062,492.099 306.719,489.492 304.929,487.174C303.137,484.858 300.873,482.987 298.135,481.565C295.395,480.143 292.131,479.432 288.339,479.432C284.547,479.432 281.281,480.143 278.543,481.565C275.803,482.987 273.539,484.858 271.749,487.174C269.957,489.492 268.614,492.099 267.72,494.995C266.824,497.893 266.377,500.816 266.377,503.764M247.101,503.764C247.101,497.76 248.18,492.309 250.34,487.411C252.498,482.513 255.42,478.326 259.109,474.85C262.795,471.374 267.167,468.688 272.223,466.792C277.279,464.896 282.651,463.948 288.339,463.948C294.027,463.948 299.399,464.896 304.455,466.792C309.511,468.688 313.88,471.374 317.569,474.85C321.255,478.326 324.178,482.513 326.338,487.411C328.496,492.309 329.577,497.76 329.577,503.764C329.577,509.768 328.496,515.246 326.338,520.196C324.178,525.148 321.255,529.387 317.569,532.915C313.88,536.445 309.511,539.21 304.455,541.21C299.399,543.209 294.027,544.212 288.339,544.212C282.651,544.212 277.279,543.209 272.223,541.21C267.167,539.21 262.795,536.445 259.109,532.915C255.42,529.387 252.498,525.148 250.34,520.196C248.18,515.246 247.101,509.768 247.101,503.764" style="fill:rgb(32,120,182);fill-rule:nonzero;"/>
            <path d="M288.339,479.932C284.645,479.932 281.427,480.631 278.774,482.009C276.114,483.389 273.884,485.229 272.145,487.479C270.398,489.739 269.07,492.317 268.197,495.142C267.321,497.977 266.877,500.878 266.877,503.764C266.877,506.655 267.321,509.582 268.198,512.466C269.071,515.347 270.399,517.951 272.145,520.206C273.883,522.458 276.116,524.327 278.78,525.76C281.429,527.188 284.645,527.912 288.339,527.912C292.031,527.912 295.247,527.188 297.898,525.76C300.56,524.327 302.793,522.458 304.533,520.206C306.277,517.95 307.605,515.346 308.48,512.466C309.357,509.575 309.801,506.647 309.801,503.764C309.801,500.886 309.357,497.985 308.48,495.142C307.607,492.318 306.278,489.74 304.533,487.479C302.792,485.229 300.561,483.389 297.904,482.009C295.249,480.631 292.031,479.932 288.339,479.932M288.339,528.912C284.478,528.912 281.102,528.148 278.306,526.64C275.517,525.14 273.178,523.181 271.353,520.818C269.533,518.466 268.15,515.754 267.241,512.757C266.336,509.779 265.877,506.753 265.877,503.764C265.877,500.778 266.337,497.778 267.242,494.848C268.15,491.907 269.533,489.223 271.354,486.868C273.182,484.502 275.524,482.568 278.313,481.121C281.11,479.668 284.483,478.932 288.339,478.932C292.193,478.932 295.566,479.668 298.365,481.121C301.152,482.568 303.493,484.502 305.324,486.868C307.143,489.224 308.526,491.908 309.436,494.847C310.341,497.786 310.801,500.786 310.801,503.764C310.801,506.745 310.342,509.771 309.437,512.757C308.527,515.753 307.143,518.465 305.324,520.818C303.497,523.181 301.158,525.14 298.372,526.64C295.573,528.148 292.198,528.912 288.339,528.912M288.339,464.448C282.737,464.448 277.374,465.394 272.399,467.26C267.428,469.124 263.072,471.8 259.452,475.214C255.83,478.627 252.918,482.799 250.797,487.613C248.676,492.422 247.601,497.856 247.601,503.764C247.601,509.674 248.677,515.135 250.798,519.995C252.919,524.863 255.831,529.088 259.455,532.554C263.076,536.022 267.434,538.778 272.407,540.745C277.385,542.714 282.745,543.712 288.339,543.712C293.933,543.712 299.293,542.714 304.271,540.745C309.24,538.78 313.597,536.024 317.223,532.554C320.844,529.088 323.757,524.863 325.88,519.996C328.002,515.129 329.077,509.667 329.077,503.764C329.077,497.862 328.002,492.428 325.881,487.613C323.757,482.799 320.846,478.627 317.226,475.214C313.602,471.799 309.247,469.123 304.279,467.26C299.304,465.394 293.941,464.448 288.339,464.448M288.339,544.712C282.619,544.712 277.135,543.69 272.039,541.675C266.945,539.661 262.479,536.835 258.763,533.276C255.044,529.718 252.055,525.385 249.881,520.395C247.705,515.408 246.601,509.812 246.601,503.764C246.601,497.716 247.705,492.146 249.882,487.209C252.057,482.272 255.046,477.992 258.766,474.486C262.483,470.981 266.952,468.235 272.047,466.324C277.136,464.415 282.617,463.448 288.339,463.448C294.061,463.448 299.542,464.415 304.631,466.324C309.723,468.233 314.191,470.979 317.912,474.486C321.63,477.992 324.618,482.272 326.796,487.209C328.973,492.152 330.077,497.722 330.077,503.764C330.077,509.806 328.973,515.401 326.797,520.395C324.62,525.385 321.632,529.718 317.915,533.276C314.195,536.836 309.729,539.662 304.639,541.675C299.543,543.69 294.059,544.712 288.339,544.712" style="fill:rgb(32,120,182);fill-rule:nonzero;"/>
            <path d="M408.107,542L390.095,542L390.095,529.834L389.779,529.834C388.093,533.626 385.17,536.971 381.01,539.867C376.848,542.763 371.925,544.212 366.237,544.212C361.285,544.212 357.046,543.343 353.518,541.605C349.987,539.867 347.092,537.576 344.828,534.732C342.562,531.888 340.902,528.625 339.851,524.936C338.797,521.25 338.271,517.458 338.271,513.56L338.271,466.16L357.231,466.16L357.231,508.188C357.231,510.4 357.389,512.718 357.705,515.14C358.021,517.564 358.705,519.749 359.759,521.697C360.811,523.647 362.26,525.252 364.104,526.516C365.945,527.78 368.395,528.412 371.451,528.412C374.399,528.412 377.005,527.807 379.272,526.595C381.536,525.385 383.38,523.83 384.802,521.934C386.224,520.038 387.303,517.853 388.041,515.377C388.776,512.903 389.147,510.4 389.147,507.872L389.147,466.16L408.107,466.16L408.107,542Z" style="fill:rgb(32,120,182);fill-rule:nonzero;"/>
            <path d="M338.771,466.66L338.771,513.56C338.771,517.396 339.296,521.177 340.332,524.798C341.359,528.403 343.003,531.64 345.219,534.42C347.427,537.194 350.293,539.46 353.739,541.156C357.181,542.852 361.386,543.712 366.237,543.712C371.792,543.712 376.666,542.28 380.724,539.456C384.788,536.628 387.681,533.322 389.322,529.631L389.454,529.334L390.595,529.334L390.595,541.5L407.607,541.5L407.607,466.66L389.647,466.66L389.647,507.872C389.647,510.431 389.268,513.004 388.521,515.519C387.768,518.041 386.652,520.3 385.202,522.234C383.741,524.181 381.826,525.797 379.508,527.036C377.18,528.281 374.469,528.912 371.451,528.912C368.306,528.912 365.739,528.244 363.821,526.928C361.917,525.623 360.401,523.942 359.319,521.934C358.242,519.944 357.532,517.68 357.209,515.204C356.892,512.775 356.731,510.414 356.731,508.188L356.731,466.66L338.771,466.66ZM366.237,544.712C361.231,544.712 356.878,543.817 353.297,542.054C349.718,540.292 346.737,537.933 344.437,535.043C342.139,532.16 340.434,528.805 339.37,525.073C338.309,521.363 337.771,517.489 337.771,513.56L337.771,465.66L357.731,465.66L357.731,508.188C357.731,510.371 357.889,512.688 358.201,515.075C358.507,517.429 359.18,519.576 360.199,521.459C361.206,523.326 362.614,524.889 364.387,526.103C366.135,527.304 368.512,527.912 371.451,527.912C374.303,527.912 376.854,527.321 379.036,526.154C381.224,524.985 383.029,523.464 384.402,521.634C385.781,519.795 386.844,517.642 387.562,515.234C388.282,512.812 388.647,510.335 388.647,507.872L388.647,465.66L408.607,465.66L408.607,542.5L389.595,542.5L389.595,531.348C387.814,534.68 385.028,537.679 381.295,540.277C377.066,543.22 372,544.712 366.237,544.712" style="fill:rgb(32,120,182);fill-rule:nonzero;"/>
            <path d="M419.857,466.16L438.027,466.16L438.027,478.8L438.343,478.8C440.449,474.376 443.399,470.796 447.191,468.056C450.983,465.318 455.407,463.948 460.463,463.948C461.199,463.948 461.989,463.975 462.833,464.027C463.675,464.081 464.413,464.212 465.045,464.422L465.045,481.802C463.781,481.486 462.7,481.276 461.806,481.17C460.91,481.066 460.041,481.012 459.199,481.012C454.878,481.012 451.403,481.802 448.771,483.382C446.137,484.962 444.083,486.858 442.609,489.07C441.133,491.282 440.133,493.548 439.607,495.864C439.079,498.182 438.817,500.026 438.817,501.394L438.817,542L419.857,542L419.857,466.16Z" style="fill:rgb(32,120,182);fill-rule:nonzero;"/>
            <path d="M420.357,541.5L438.317,541.5L438.317,501.394C438.317,499.987 438.587,498.089 439.12,495.752C439.657,493.385 440.691,491.043 442.193,488.792C443.702,486.528 445.828,484.564 448.514,482.953C451.211,481.333 454.807,480.512 459.199,480.512C460.042,480.512 460.938,480.566 461.863,480.673C462.633,480.765 463.532,480.931 464.545,481.167L464.545,464.794C464.036,464.658 463.451,464.568 462.801,464.526C461.962,464.475 461.174,464.448 460.463,464.448C455.539,464.448 451.172,465.798 447.483,468.461C443.776,471.141 440.852,474.691 438.794,479.015L438.659,479.3L437.527,479.3L437.527,466.66L420.357,466.66L420.357,541.5ZM439.317,542.5L419.357,542.5L419.357,465.66L438.527,465.66L438.527,477.323C440.609,473.414 443.42,470.164 446.898,467.651C450.761,464.862 455.324,463.448 460.463,463.448C461.195,463.448 462.003,463.475 462.864,463.528C463.752,463.585 464.538,463.727 465.203,463.947L465.545,464.061L465.545,482.442L464.924,482.287C463.696,481.98 462.627,481.771 461.747,481.667C460.861,481.564 460.003,481.512 459.199,481.512C454.99,481.512 451.568,482.286 449.028,483.811C446.471,485.345 444.451,487.208 443.025,489.347C441.591,491.496 440.605,493.726 440.095,495.975C439.579,498.239 439.317,500.062 439.317,501.394L439.317,542.5Z" style="fill:rgb(32,120,182);fill-rule:nonzero;"/>
            <path d="M523.351,487.174C521.874,485.069 519.663,483.303 516.715,481.881C513.765,480.459 510.763,479.748 507.708,479.748C504.233,479.748 501.176,480.459 498.544,481.881C495.911,483.303 493.726,485.174 491.988,487.49C490.249,489.808 488.958,492.415 488.117,495.311C487.273,498.21 486.853,501.132 486.853,504.08C486.853,507.03 487.299,509.953 488.196,512.849C489.089,515.747 490.432,518.355 492.225,520.67C494.015,522.988 496.253,524.857 498.94,526.279C501.625,527.701 504.758,528.412 508.341,528.412C511.288,528.412 514.239,527.835 517.189,526.674C520.136,525.516 522.506,523.83 524.299,521.618L536.149,533.626C532.989,536.999 528.959,539.606 524.062,541.447C519.164,543.289 513.871,544.212 508.183,544.212C502.598,544.212 497.305,543.316 492.304,541.526C487.299,539.737 482.927,537.102 479.19,533.626C475.45,530.15 472.499,525.939 470.342,520.986C468.182,516.036 467.103,510.4 467.103,504.08C467.103,497.972 468.182,492.443 470.342,487.49C472.499,482.54 475.422,478.326 479.111,474.85C482.796,471.374 487.09,468.688 491.988,466.792C496.886,464.896 502.124,463.948 507.708,463.948C513.29,463.948 518.69,465.002 523.904,467.108C529.118,469.216 533.25,472.112 536.307,475.798L523.351,487.174Z" style="fill:rgb(32,120,182);fill-rule:nonzero;"/>
            <path d="M507.708,464.448C502.214,464.448 496.985,465.393 492.168,467.258C487.352,469.123 483.073,471.8 479.453,475.214C475.832,478.626 472.92,482.824 470.8,487.69C468.678,492.553 467.603,498.068 467.603,504.08C467.603,510.304 468.678,515.925 470.8,520.785C472.917,525.647 475.855,529.844 479.53,533.26C483.201,536.674 487.556,539.297 492.472,541.055C497.397,542.818 502.684,543.712 508.183,543.712C513.779,543.712 519.062,542.792 523.886,540.979C528.519,539.237 532.407,536.766 535.452,533.632L524.328,522.36C522.531,524.424 520.193,526.031 517.371,527.139C514.381,528.315 511.343,528.912 508.341,528.912C504.692,528.912 501.451,528.175 498.705,526.72C495.967,525.271 493.653,523.338 491.829,520.975C490.009,518.624 488.625,515.94 487.718,512.996C486.812,510.071 486.353,507.071 486.353,504.08C486.353,501.094 486.784,498.097 487.636,495.171C488.49,492.232 489.819,489.547 491.587,487.19C493.363,484.823 495.624,482.889 498.307,481.441C501,479.986 504.163,479.248 507.708,479.248C510.824,479.248 513.927,479.982 516.932,481.43C519.732,482.782 521.916,484.465 523.431,486.438L535.607,475.746C532.647,472.315 528.649,469.566 523.716,467.571C518.585,465.499 513.199,464.448 507.708,464.448M508.183,544.712C502.568,544.712 497.169,543.798 492.135,541.996C487.09,540.193 482.62,537.499 478.849,533.992C475.073,530.483 472.056,526.174 469.883,521.185C467.706,516.198 466.603,510.443 466.603,504.08C466.603,497.929 467.706,492.281 469.883,487.29C472.058,482.3 475.047,477.992 478.768,474.486C482.481,470.983 486.869,468.237 491.807,466.325C496.74,464.416 502.09,463.448 507.708,463.448C513.328,463.448 518.84,464.523 524.091,466.644C529.356,468.773 533.596,471.746 536.691,475.478L537.002,475.853L523.262,487.917L522.941,487.461C521.521,485.434 519.353,483.709 516.497,482.331C513.63,480.948 510.672,480.248 507.708,480.248C504.331,480.248 501.327,480.945 498.781,482.321C496.228,483.7 494.076,485.54 492.387,487.79C490.692,490.05 489.417,492.627 488.597,495.45C487.771,498.285 487.353,501.189 487.353,504.08C487.353,506.97 487.797,509.871 488.673,512.701C489.545,515.53 490.873,518.108 492.62,520.364C494.356,522.613 496.562,524.454 499.174,525.837C501.773,527.214 504.857,527.912 508.341,527.912C511.217,527.912 514.132,527.339 517.006,526.208C519.856,525.088 522.18,523.438 523.91,521.303L524.263,520.869L536.842,533.617L536.514,533.968C533.315,537.381 529.185,540.054 524.237,541.914C519.301,543.771 513.899,544.712 508.183,544.712" style="fill:rgb(32,120,182);fill-rule:nonzero;"/>
            <path d="M596.033,496.496C596.033,494.074 595.689,491.756 595.006,489.544C594.319,487.332 593.241,485.384 591.766,483.698C590.291,482.014 588.422,480.671 586.158,479.669C583.891,478.669 581.232,478.168 578.179,478.168C572.491,478.168 567.672,479.881 563.721,483.303C559.771,486.727 557.585,491.124 557.165,496.496L596.033,496.496ZM614.993,505.028L614.993,507.556C614.993,508.4 614.938,509.242 614.835,510.084L557.165,510.084C557.375,512.824 558.086,515.325 559.298,517.589C560.508,519.855 562.115,521.803 564.117,523.435C566.116,525.069 568.383,526.358 570.911,527.306C573.438,528.254 576.07,528.728 578.81,528.728C583.551,528.728 587.553,527.859 590.819,526.121C594.083,524.383 596.768,521.988 598.877,518.932L611.516,529.044C604.036,539.156 593.188,544.212 578.969,544.212C573.068,544.212 567.644,543.288 562.695,541.447C557.742,539.605 553.452,536.998 549.818,533.626C546.183,530.256 543.34,526.121 541.286,521.223C539.231,516.325 538.205,510.77 538.205,504.554C538.205,498.446 539.231,492.889 541.286,487.885C543.34,482.883 546.157,478.617 549.739,475.087C553.318,471.559 557.559,468.821 562.458,466.871C567.355,464.923 572.649,463.948 578.337,463.948C583.602,463.948 588.473,464.817 592.952,466.555C597.428,468.293 601.299,470.875 604.564,474.297C607.829,477.721 610.384,481.987 612.227,487.095C614.069,492.205 614.993,498.182 614.993,505.028" style="fill:rgb(32,120,182);fill-rule:nonzero;"/>
            <path d="M557.712,495.996L595.528,495.996C595.483,493.815 595.148,491.697 594.528,489.691C593.865,487.556 592.81,485.65 591.391,484.027C589.971,482.407 588.142,481.094 585.956,480.126C583.763,479.159 581.147,478.668 578.179,478.668C572.643,478.668 567.889,480.354 564.049,483.681C560.352,486.886 558.222,491.026 557.712,495.996M596.533,496.996L556.624,496.996L556.667,496.457C557.095,490.976 559.358,486.423 563.395,482.925C567.422,479.437 572.396,477.668 578.179,477.668C581.286,477.668 584.038,478.187 586.36,479.211C588.681,480.239 590.626,481.638 592.143,483.369C593.655,485.098 594.778,487.125 595.483,489.395C596.18,491.65 596.533,494.038 596.533,496.496L596.533,496.996ZM578.337,464.448C572.74,464.448 567.46,465.42 562.643,467.335C557.826,469.253 553.603,471.981 550.09,475.443C546.574,478.909 543.768,483.159 541.749,488.075C539.73,492.994 538.705,498.538 538.705,504.554C538.705,510.675 539.729,516.218 541.747,521.03C543.765,525.841 546.595,529.955 550.158,533.259C553.729,536.573 558.005,539.17 562.869,540.978C567.744,542.792 573.161,543.712 578.969,543.712C592.772,543.712 603.486,538.807 610.826,529.132L598.98,519.654C596.882,522.555 594.218,524.877 591.055,526.562C587.73,528.331 583.61,529.228 578.811,529.228C576.024,529.228 573.308,528.739 570.735,527.774C568.16,526.808 565.827,525.478 563.801,523.822C561.754,522.154 560.091,520.136 558.857,517.824C557.618,515.51 556.881,512.918 556.667,510.122L556.625,509.584L614.388,509.584C614.458,508.898 614.493,508.218 614.493,507.556L614.493,505.028C614.493,498.278 613.572,492.302 611.757,487.265C609.946,482.247 607.404,478 604.202,474.642C601.001,471.287 597.154,468.723 592.772,467.021C588.372,465.314 583.516,464.448 578.337,464.448M578.969,544.712C573.041,544.712 567.508,543.771 562.521,541.915C557.533,540.061 553.145,537.395 549.479,533.993C545.81,530.591 542.898,526.36 540.825,521.416C538.755,516.481 537.705,510.808 537.705,504.554C537.705,498.407 538.754,492.735 540.823,487.695C542.894,482.653 545.775,478.291 549.389,474.731C552.996,471.175 557.331,468.374 562.274,466.407C567.209,464.443 572.613,463.448 578.337,463.448C583.641,463.448 588.618,464.337 593.133,466.089C597.654,467.845 601.622,470.49 604.926,473.952C608.225,477.411 610.839,481.776 612.698,486.925C614.553,492.072 615.493,498.162 615.493,505.028L615.493,507.556C615.493,508.4 615.439,509.271 615.331,510.145L615.277,510.584L557.712,510.584C557.964,513.035 558.645,515.31 559.738,517.353C560.91,519.547 562.489,521.463 564.433,523.047C566.375,524.635 568.613,525.911 571.087,526.838C573.546,527.76 576.145,528.228 578.811,528.228C583.444,528.228 587.406,527.371 590.585,525.68C593.763,523.987 596.414,521.621 598.466,518.648L598.771,518.206L612.205,528.954L611.919,529.341C604.373,539.54 593.287,544.712 578.969,544.712" style="fill:rgb(32,120,182);fill-rule:nonzero;"/>
            <path d="M740,421.04L740,474.96L739.52,474.96C738.56,473.68 737.333,472.347 735.84,470.96C734.347,469.573 732.56,468.294 730.48,467.12C728.4,465.946 725.973,464.96 723.2,464.16C720.427,463.36 717.28,462.96 713.76,462.96C708.32,462.96 703.307,464 698.72,466.08C694.133,468.16 690.187,471.013 686.88,474.64C683.573,478.266 681.013,482.533 679.2,487.44C677.387,492.347 676.48,497.626 676.48,503.28C676.48,508.933 677.36,514.24 679.12,519.2C680.88,524.16 683.387,528.48 686.64,532.16C689.893,535.84 693.84,538.773 698.48,540.96C703.12,543.147 708.373,544.24 714.24,544.24C719.68,544.24 724.774,543.066 729.52,540.72C734.267,538.373 737.973,534.96 740.64,530.48L740.96,530.48L740.96,542L759.2,542L759.2,421.04L740,421.04ZM708.32,526C705.547,524.507 703.254,522.587 701.44,520.24C699.627,517.893 698.267,515.227 697.36,512.24C696.453,509.253 696,506.266 696,503.28C696,500.293 696.453,497.333 697.36,494.4C698.267,491.467 699.627,488.827 701.44,486.48C703.254,484.134 705.547,482.24 708.32,480.8C711.094,479.36 714.346,478.64 718.08,478.64C721.6,478.64 724.747,479.387 727.52,480.88C730.293,482.373 732.667,484.294 734.64,486.64C736.613,488.986 738.107,491.653 739.12,494.64C740.133,497.626 740.64,500.613 740.64,503.6C740.64,506.587 740.133,509.547 739.12,512.48C738.107,515.413 736.613,518.054 734.64,520.4C732.667,522.747 730.293,524.64 727.52,526.08C724.747,527.52 721.6,528.24 718.08,528.24C714.346,528.24 711.094,527.494 708.32,526ZM779.04,424.88L779.04,438.32L787.84,438.32C790.933,438.32 792.88,439.333 793.68,441.36C794.48,443.387 794.88,445.573 794.88,447.92L794.88,478C794.88,481.093 795.467,483.733 796.64,485.92C797.813,488.107 799.2,489.893 800.8,491.28C802.4,492.666 804.107,493.733 805.92,494.48C807.733,495.227 809.28,495.654 810.56,495.76L810.56,496.08C809.28,496.186 807.733,496.534 805.92,497.12C804.107,497.706 802.4,498.694 800.8,500.08C799.2,501.467 797.813,503.333 796.64,505.68C795.467,508.027 794.88,511.067 794.88,514.8L794.88,543.92C794.88,546.267 794.48,548.453 793.68,550.48C792.88,552.507 790.933,553.52 787.84,553.52L779.04,553.52L779.04,566.96L790.72,566.96C793.387,566.96 795.946,566.533 798.4,565.68C800.853,564.827 803.04,563.52 804.96,561.76C806.88,560 808.4,557.813 809.52,555.2C810.64,552.587 811.2,549.466 811.2,545.84L811.2,515.28C811.2,512.72 811.573,510.64 812.32,509.04C813.066,507.44 813.974,506.187 815.04,505.28C816.107,504.374 817.28,503.76 818.56,503.44C819.84,503.12 821.066,502.96 822.24,502.96L822.24,488.88C821.066,488.88 819.84,488.72 818.56,488.4C817.28,488.08 816.107,487.52 815.04,486.72C813.974,485.92 813.066,484.773 812.32,483.28C811.573,481.786 811.2,479.92 811.2,477.68L811.2,446C811.2,442.374 810.64,439.253 809.52,436.64C808.4,434.027 806.88,431.84 804.96,430.08C803.04,428.32 800.853,427.013 798.4,426.16C795.946,425.307 793.387,424.88 790.72,424.88L779.04,424.88ZM657.12,424.88C654.453,424.88 651.893,425.307 649.44,426.16C646.987,427.013 644.8,428.32 642.88,430.08C640.96,431.84 639.44,434.027 638.32,436.64C637.2,439.253 636.64,442.374 636.64,446L636.64,477.68C636.64,479.92 636.267,481.786 635.52,483.28C634.774,484.773 633.866,485.92 632.8,486.72C631.733,487.52 630.534,488.08 629.2,488.4C627.867,488.72 626.666,488.88 625.6,488.88L625.6,502.96C626.666,502.96 627.867,503.12 629.2,503.44C630.534,503.76 631.733,504.374 632.8,505.28C633.866,506.187 634.774,507.44 635.52,509.04C636.267,510.64 636.64,512.72 636.64,515.28L636.64,545.84C636.64,549.466 637.2,552.587 638.32,555.2C639.44,557.813 640.96,560 642.88,561.76C644.8,563.52 646.987,564.827 649.44,565.68C651.893,566.533 654.453,566.96 657.12,566.96L668.8,566.96L668.8,553.52L660,553.52C656.906,553.52 654.96,552.507 654.16,550.48C653.36,548.453 652.96,546.267 652.96,543.92L652.96,514.8C652.96,511.067 652.373,508.027 651.2,505.68C650.027,503.333 648.64,501.467 647.04,500.08C645.44,498.694 643.733,497.706 641.92,497.12C640.107,496.534 638.56,496.186 637.28,496.08L637.28,495.76C638.56,495.654 640.107,495.227 641.92,494.48C643.733,493.733 645.44,492.666 647.04,491.28C648.64,489.893 650.027,488.107 651.2,485.92C652.373,483.733 652.96,481.093 652.96,478L652.96,447.92C652.96,445.573 653.36,443.387 654.16,441.36C654.96,439.333 656.906,438.32 660,438.32L668.8,438.32L668.8,424.88L657.12,424.88Z" style="fill:rgb(86,144,204);fill-rule:nonzero;"/>
        </g>
    </g>
</svg>
