<svg xmlns="http://www.w3.org/2000/svg" width="781.58" height="501.941" viewBox="0 0 732.731 470.569"><defs><marker orient="auto" id="f" overflow="visible"><path d="M-5.231-2.42L1.324-.01-5.23 2.401c1.047-1.423 1.041-3.37 0-4.821z" fill-rule="evenodd" stroke-width=".375" stroke-linejoin="round" stroke="#000"/></marker><marker id="e" orient="auto" overflow="visible"><path d="M-5.231-2.42L1.324-.01-5.23 2.401c1.047-1.423 1.041-3.37 0-4.821z" fill-rule="evenodd" stroke="#000" stroke-width=".375" stroke-linejoin="round"/></marker><marker orient="auto" id="d" overflow="visible"><path d="M-5.231-2.42L1.324-.01-5.23 2.401c1.047-1.423 1.041-3.37 0-4.821z" fill-rule="evenodd" stroke="#000" stroke-width=".375" stroke-linejoin="round"/></marker><marker id="c" orient="auto" overflow="visible"><path d="M-5.231-2.42L1.324-.01-5.23 2.401c1.047-1.423 1.041-3.37 0-4.821z" fill-rule="evenodd" stroke="#000" stroke-width=".375" stroke-linejoin="round"/></marker><marker orient="auto" id="b" overflow="visible"><path d="M-5.231-2.42L1.324-.01-5.23 2.401c1.047-1.423 1.041-3.37 0-4.821z" fill-rule="evenodd" stroke="#000" stroke-width=".375" stroke-linejoin="round"/></marker><marker orient="auto" id="a" overflow="visible"><path d="M-5.231-2.42L1.324-.01-5.23 2.401c1.047-1.423 1.041-3.37 0-4.821z" fill-rule="evenodd" stroke="#000" stroke-width=".375" stroke-linejoin="round"/></marker></defs><g transform="translate(-42.113 -29.44)"><rect width="243.5" height="107.5" x="238.25" y="102.362" rx="20" ry="20" fill="#2f74ff" fill-opacity=".376" stroke="#fff" stroke-width="5" stroke-linejoin="round" stroke-opacity=".235"/><circle cx="186" cy="299.935" r="53.75" fill="#ff8b8b" fill-opacity=".376" stroke="#fff" stroke-width="5" stroke-linejoin="round" stroke-opacity=".235"/><circle r="53.75" cy="443.759" cx="334.96" fill="#ff8b8b" fill-opacity=".376" stroke="#fff" stroke-width="5" stroke-linejoin="round" stroke-opacity=".235"/><circle cx="522.596" cy="443.758" r="53.75" fill="#ff8b8b" fill-opacity=".376" stroke="#fff" stroke-width="5" stroke-linejoin="round" stroke-opacity=".235"/><path d="M427.75 246.185v-36.323" fill="none" stroke="#000" stroke-width="5" marker-end="url(#a)"/><rect ry="20" rx="20" y="246.185" x="306" height="107.5" width="243.5" fill="#2f74ff" fill-opacity=".376" stroke="#fff" stroke-width="5" stroke-linejoin="round" stroke-opacity=".235"/><path d="M374.25 408.112c19.996-19.996 20.125-19.914 20.125-54.427" fill="none" stroke="#000" stroke-width="5" marker-end="url(#b)"/><path d="M374.25 408.112c19.996-19.996 20.125-19.914 20.125-54.427" fill="none" stroke="#000" stroke-width="5" marker-end="url(#c)"/><path d="M482.925 407.581c-19.997-19.996-19.5-19.383-19.5-53.896" fill="none" stroke="#000" stroke-width="5" marker-end="url(#d)"/><path d="M360 102.362V66.04" fill="none" stroke="#000" stroke-width="5" marker-end="url(#e)"/><text style="line-height:125%;-inkscape-font-specification:monospace" x="316.75" y="174.752" font-weight="400" font-size="12.5" font-family="monospace" letter-spacing="0" word-spacing="0"><tspan x="316.75" y="174.752" style="-inkscape-font-specification:monospace" font-size="50">Add</tspan></text><text y="318.71" x="338.883" style="line-height:125%;-inkscape-font-specification:monospace" font-weight="400" font-size="12.5" font-family="monospace" letter-spacing="0" word-spacing="0"><tspan style="-inkscape-font-specification:monospace" y="318.71" x="338.883" font-size="50">MatMul</tspan></text><text y="318.575" x="170.07" style="line-height:125%;-inkscape-font-specification:monospace" font-weight="400" font-size="12.5" font-family="monospace" letter-spacing="0" word-spacing="0"><tspan style="-inkscape-font-specification:monospace" y="318.575" x="170.07" font-size="50">b</tspan></text><text style="line-height:125%;-inkscape-font-specification:monospace" x="319.908" y="461.984" font-weight="400" font-size="12.5" font-family="monospace" letter-spacing="0" word-spacing="0"><tspan x="319.908" y="461.984" style="-inkscape-font-specification:monospace" font-size="50">W</tspan></text><text style="line-height:125%;-inkscape-font-specification:monospace" x="507.544" y="457.43" font-weight="400" font-size="12.5" font-family="monospace" letter-spacing="0" word-spacing="0"><tspan x="507.544" y="457.43" style="-inkscape-font-specification:monospace" font-size="50">x</tspan></text><text style="line-height:125%" x="41.5" y="418.862" font-weight="400" font-size="12.5" font-family="sans-serif" letter-spacing="0" word-spacing="0"><tspan x="41.5" y="418.862" style="-inkscape-font-specification:'Over the Rainbow'" font-size="30" font-family="Over the Rainbow">State tensors</tspan></text><text y="410.862" x="591.5" style="line-height:125%" font-weight="400" font-size="12.5" font-family="sans-serif" letter-spacing="0" word-spacing="0"><tspan style="-inkscape-font-specification:'Over the Rainbow'" y="410.862" x="591.5" font-size="30" font-family="Over the Rainbow">Input tensors</tspan></text><text y="197.362" x="522.5" style="line-height:125%" font-weight="400" font-size="12.5" font-family="sans-serif" letter-spacing="0" word-spacing="0"><tspan style="-inkscape-font-specification:'Over the Rainbow'" y="197.362" x="522.5" font-size="30" font-family="Over the Rainbow">Operations</tspan></text><text style="line-height:125%" x="267.079" y="55.396" font-weight="400" font-size="12.5" font-family="sans-serif" letter-spacing="0" word-spacing="0"><tspan x="267.079" y="55.396" style="-inkscape-font-specification:'Over the Rainbow'" font-size="30" font-family="Over the Rainbow">Output tensors</tspan></text><path d="M592.962 197.362c2 75.147-43.462 84.147-43.462 84.147M481.75 189.009l35.712-2.5M563.955 409.43c6.007-13.421 29.007-8.921 29.007-8.921M79.462 390.509c-4-30.5 57.543-68.47 57.543-68.47M220.962 405.509c43.5 0 63.075 21.045 63.075 21.045" fill="none" stroke="#000"/><path d="M239.75 299.935c33.738 0 41.863-14.655 41.863-81.426v-8.647" fill="none" stroke="#000" stroke-width="5" marker-end="url(#f)"/></g></svg>