<svg xmlns="http://www.w3.org/2000/svg" xmlns:xlink="http://www.w3.org/1999/xlink" viewBox="0 0 236.6447 234.74293" height="250.392" width="252.421"><defs><pattern id="a" patternTransform="scale(10)" height="1" width="9" patternUnits="userSpaceOnUse"><path d="M0-.5h1v2H0z"/></pattern><pattern id="b" patternTransform="scale(10)" height="1" width="9" patternUnits="userSpaceOnUse"><path fill="#b0b0b0" d="M0-.5h1v2H0z"/></pattern><pattern id="c" patternTransform="scale(10)" height="1" width="9" patternUnits="userSpaceOnUse"><path fill="#b0b0b0" d="M0-.5h1v2H0z"/></pattern><pattern patternTransform="rotate(45) scale(.83333 11.50005)" id="f" xlink:href="#d"/><pattern id="d" patternTransform="scale(10)" height="1" width="9" patternUnits="userSpaceOnUse"><path fill="silver" d="M0-.5h1v2H0z"/></pattern><pattern xlink:href="#e" id="g" patternTransform="rotate(45) scale(.83333 10.50004)"/><pattern id="e" patternTransform="scale(10)" height="1" width="9" patternUnits="userSpaceOnUse"><path fill="silver" d="M0-.5h1v2H0z"/></pattern></defs><path fill="url(#f)" d="M56.569 142.012h84.4v130.6h-84.4z" transform="translate(-35.384 -38.21)"/><path fill="url(#g)" d="M141.035 57.462h130.494v84.5H141.035z" transform="translate(-35.384 -38.21)"/><path fill="none" stroke="#000" stroke-linecap="round" d="M21.185 19.222h214.96v214.96H21.185z"/><path d="M105.65 18.722v216.02M20.684 103.751h215.137" fill="none" stroke="#000" stroke-dasharray="6,6"/><path d="M21.116 18.901c10.75-10.75 73.482-11.017 84.5 0M20.992 103.525c-10.75-10.75-11.018-73.482 0-84.5M105.616 18.901c10.75-10.75 119.232-10.892 130.25.125M20.765 233.929c-10.75-10.75-10.893-119.232.125-130.25" fill="none" stroke="#000" stroke-width=".5"/><text style="line-height:125%;-inkscape-font-specification:monospace" x="33.48" y="7.651" font-weight="400" font-size="40" font-family="monospace" letter-spacing="0" word-spacing="0"><tspan x="33.48" y="7.651" style="-inkscape-font-specification:monospace" font-size="10">developers</tspan></text><text y="7.651" x="134.256" style="line-height:125%;-inkscape-font-specification:monospace" font-weight="400" font-size="40" font-family="monospace" letter-spacing="0" word-spacing="0"><tspan style="-inkscape-font-specification:monospace" y="7.651" x="134.256" font-size="10">repositories</tspan></text><text y="7.651" x="-91.161" style="line-height:125%;-inkscape-font-specification:monospace" transform="rotate(-90)" font-weight="400" font-size="40" font-family="monospace" letter-spacing="0" word-spacing="0"><tspan style="-inkscape-font-specification:monospace" y="7.651" x="-91.161" font-size="10">developers</tspan></text><text style="line-height:125%;-inkscape-font-specification:monospace" x="-205.288" y="7.651" transform="rotate(-90)" font-weight="400" font-size="40" font-family="monospace" letter-spacing="0" word-spacing="0"><tspan x="-205.288" y="7.651" style="-inkscape-font-specification:monospace" font-size="10">repositories</tspan></text><circle cx="154.241" cy="69.776" r="2.375" fill="#d40000"/><circle r="2.375" cy="152.941" cx="70.473" fill="#d40000"/><text style="line-height:125%" x="156.116" y="66.651" font-weight="400" font-size="40" font-family="sans-serif" letter-spacing="0" word-spacing="0" fill="#d40000"><tspan x="156.116" y="66.651" font-size="15">C<tspan font-size="65%" baseline-shift="sub">ij</tspan></tspan></text><text y="149.316" x="71.951" style="line-height:125%" font-weight="400" font-size="40" font-family="sans-serif" letter-spacing="0" word-spacing="0" fill="#d40000"><tspan y="149.316" x="71.951" font-size="15">C<tspan font-size="65%" baseline-shift="sub">ji</tspan></tspan></text><text style="line-height:125%" x="53.236" y="74.406" font-weight="400" font-size="40" font-family="sans-serif" letter-spacing="0" word-spacing="0"><tspan x="53.236" y="74.406" style="-inkscape-font-specification:sans-serif" font-size="35">0</tspan></text><text y="181.887" x="159.07" style="line-height:125%" font-weight="400" font-size="40" font-family="sans-serif" letter-spacing="0" word-spacing="0"><tspan style="-inkscape-font-specification:sans-serif" y="181.887" x="159.07" font-size="35">0</tspan></text></svg>