<?xml version="1.0" encoding="UTF-8" standalone="no"?>
<!DOCTYPE svg PUBLIC "-//W3C//DTD SVG 1.1//EN"
 "http://www.w3.org/Graphics/SVG/1.1/DTD/svg11.dtd">
<!-- Generated by graphviz version 2.40.1 (20161225.0304)
 -->
<!-- Title: ArminRonacher Pages: 1 -->
<svg width="1193pt" height="750pt"
 viewBox="0.00 0.00 1193 750" xmlns="http://www.w3.org/2000/svg" xmlns:xlink="http://www.w3.org/1999/xlink">
<g id="graph0" class="graph" transform="scale(1.4465 1.4465) rotate(0) translate(4 514.5045)">
<title>Armin Ronacher</title>
<polygon fill="#ffffff" stroke="transparent" points="-4,4 -4,-514.5045 820.8072,-514.5045 820.8072,4 -4,4"/>
<!-- 6019034 -->
<g id="node1" class="node">
<title>6019034</title>
<ellipse fill="#ff0000" stroke="#000000" cx="402.7065" cy="-255.2522" rx="93.726" ry="25.4118"/>
<text text-anchor="middle" x="402.7065" y="-258.0522" font-family="Times,serif" font-size="14.00" fill="#ffffff">Armin Ronacher</text>
<text text-anchor="middle" x="402.7065" y="-244.0522" font-family="Times,serif" font-size="14.00" fill="#ffffff">x<tspan dy="3" font-size="10">AR</tspan></text>
</g>
<!-- 0 -->
<g id="node2" class="node">
<title>0</title>
<ellipse fill="none" stroke="#000000" cx="729.5216" cy="-421.1219" rx="84.6218" ry="25.4118"/>
<text text-anchor="middle" x="729.5216" y="-423.9219" font-family="Times,serif" font-size="14.00" fill="#000000">rust&#45;lang/rust</text>
<text text-anchor="middle" x="729.5216" y="-409.9219" font-family="Times,serif" font-size="14.00" fill="#000000">x<tspan dy="3" font-size="10">0</tspan></text>
</g>
<!-- 0&#45;&gt;6019034 -->
<g id="edge1" class="edge">
<title>0&#45;&gt;6019034</title>
<path fill="none" stroke="#000000" d="M686.1231,-399.0957C626.7935,-368.984 520.4237,-314.9977 456.2251,-282.4147"/>
<polygon fill="#000000" stroke="#000000" points="457.5711,-279.1729 447.0698,-277.7681 454.403,-285.415 457.5711,-279.1729"/>
<text text-anchor="middle" x="545.4359" y="-347.2303" font-family="Times,serif" font-size="14.00" fill="#000000">w<tspan dy="3" font-size="10">0→AR</tspan></text>
</g>
<!-- 1 -->
<g id="node3" class="node">
<title>1</title>
<ellipse fill="none" stroke="#000000" cx="531.9862" cy="-439.9247" rx="93.453" ry="25.4118"/>
<text text-anchor="middle" x="531.9862" y="-442.7247" font-family="Times,serif" font-size="14.00" fill="#000000">Distrotech/mercurial</text>
<text text-anchor="middle" x="531.9862" y="-428.7247" font-family="Times,serif" font-size="14.00" fill="#000000">x<tspan dy="3" font-size="10">1</tspan></text>
</g>
<!-- 1&#45;&gt;6019034 -->
<g id="edge2" class="edge">
<title>1&#45;&gt;6019034</title>
<path fill="none" stroke="#000000" d="M514.2815,-414.634C491.4261,-381.9857 451.5855,-325.0745 426.2117,-288.8289"/>
<polygon fill="#000000" stroke="#000000" points="429.0065,-286.7181 420.4043,-280.5331 423.272,-290.7325 429.0065,-286.7181"/>
<text text-anchor="middle" x="440.0066" y="-351.2055" font-family="Times,serif" font-size="14.00" fill="#000000">w<tspan dy="3" font-size="10">1→AR</tspan></text>
</g>
<!-- 2 -->
<g id="node4" class="node">
<title>2</title>
<ellipse fill="none" stroke="#000000" cx="320.5044" cy="-477.5631" rx="84.6218" ry="25.4118"/>
<text text-anchor="middle" x="320.5044" y="-480.3631" font-family="Times,serif" font-size="14.00" fill="#000000">openSUSE/salt</text>
<text text-anchor="middle" x="320.5044" y="-466.3631" font-family="Times,serif" font-size="14.00" fill="#000000">x<tspan dy="3" font-size="10">2</tspan></text>
</g>
<!-- 2&#45;&gt;6019034 -->
<g id="edge3" class="edge">
<title>2&#45;&gt;6019034</title>
<path fill="none" stroke="#000000" d="M329.934,-452.0613C344.6364,-412.2995 373.0578,-335.4353 389.6982,-290.4324"/>
<polygon fill="#000000" stroke="#000000" points="393.0751,-291.3914 393.2605,-280.7982 386.5096,-288.9637 393.0751,-291.3914"/>
<text text-anchor="middle" x="331.3892" y="-370.0508" font-family="Times,serif" font-size="14.00" fill="#000000">w<tspan dy="3" font-size="10">2→AR</tspan></text>
</g>
<!-- 3 -->
<g id="node5" class="node">
<title>3</title>
<ellipse fill="none" stroke="#000000" cx="87.1792" cy="-444.1952" rx="84.6218" ry="25.4118"/>
<text text-anchor="middle" x="87.1792" y="-446.9952" font-family="Times,serif" font-size="14.00" fill="#000000">celery/celery</text>
<text text-anchor="middle" x="87.1792" y="-432.9952" font-family="Times,serif" font-size="14.00" fill="#000000">x<tspan dy="3" font-size="10">3</tspan></text>
</g>
<!-- 3&#45;&gt;6019034 -->
<g id="edge4" class="edge">
<title>3&#45;&gt;6019034</title>
<path fill="none" stroke="#000000" d="M125.2392,-421.4042C182.7297,-386.9779 291.6683,-321.7437 354.5845,-284.0684"/>
<polygon fill="#000000" stroke="#000000" points="356.7404,-286.8571 363.5217,-278.7167 353.1441,-280.8515 356.7404,-286.8571"/>
<text text-anchor="middle" x="194.1656" y="-353.5786" font-family="Times,serif" font-size="14.00" fill="#000000">w<tspan dy="3" font-size="10">3→AR</tspan></text>
</g>
<!-- 4 -->
<g id="node6" class="node">
<title>4</title>
<ellipse fill="none" stroke="#000000" cx="109.032" cy="-255.2522" rx="95.3512" ry="25.4118"/>
<text text-anchor="middle" x="109.032" y="-258.0522" font-family="Times,serif" font-size="14.00" fill="#000000">kennethreitz/requests</text>
<text text-anchor="middle" x="109.032" y="-244.0522" font-family="Times,serif" font-size="14.00" fill="#000000">x<tspan dy="3" font-size="10">4</tspan></text>
</g>
<!-- 4&#45;&gt;6019034 -->
<g id="edge5" class="edge">
<title>4&#45;&gt;6019034</title>
<path fill="none" stroke="#000000" d="M204.6074,-255.2522C295.9445,-255.2522 297.2831,-255.2522 298.6222,-255.2522"/>
<polygon fill="#000000" stroke="#000000" points="298.8836,-258.7523 308.8835,-255.2522 298.8835,-251.7523 298.8836,-258.7523"/>
<text text-anchor="middle" x="250" y="-263.7358" font-family="Times,serif" font-size="14.00" fill="#000000">w<tspan dy="3" font-size="10">4→AR</tspan></text>
</g>
<!-- 5 -->
<g id="node7" class="node">
<title>5</title>
<ellipse fill="none" stroke="#000000" cx="87.1792" cy="-66.3093" rx="87.3588" ry="25.4118"/>
<text text-anchor="middle" x="87.1792" y="-69.1093" font-family="Times,serif" font-size="14.00" fill="#000000">cheshire/virtualenv</text>
<text text-anchor="middle" x="87.1792" y="-55.1093" font-family="Times,serif" font-size="14.00" fill="#000000">x<tspan dy="3" font-size="10">5</tspan></text>
</g>
<!-- 5&#45;&gt;6019034 -->
<g id="edge6" class="edge">
<title>5&#45;&gt;6019034</title>
<path fill="none" stroke="#000000" d="M125.5536,-89.2885C183.1592,-123.7837 291.9077,-188.9041 354.6927,-226.5008"/>
<polygon fill="#000000" stroke="#000000" points="353.2334,-229.7065 363.611,-231.8412 356.8297,-223.7009 353.2334,-229.7065"/>
<text text-anchor="middle" x="214.4614" y="-164.0703" font-family="Times,serif" font-size="14.00" fill="#000000">w<tspan dy="3" font-size="10">5→AR</tspan></text>
</g>
<!-- 6 -->
<g id="node8" class="node">
<title>6</title>
<ellipse fill="none" stroke="#000000" cx="320.5044" cy="-32.9413" rx="84.6218" ry="25.4118"/>
<text text-anchor="middle" x="320.5044" y="-35.7413" font-family="Times,serif" font-size="14.00" fill="#000000">pallets/jinja</text>
<text text-anchor="middle" x="320.5044" y="-21.7413" font-family="Times,serif" font-size="14.00" fill="#000000">x<tspan dy="3" font-size="10">6</tspan></text>
</g>
<!-- 6&#45;&gt;6019034 -->
<g id="edge7" class="edge">
<title>6&#45;&gt;6019034</title>
<path fill="none" stroke="#000000" d="M329.934,-58.4432C344.6364,-98.205 373.0578,-175.0691 389.6982,-220.0721"/>
<polygon fill="#000000" stroke="#000000" points="386.5096,-221.5408 393.2605,-229.7063 393.0751,-219.1131 386.5096,-221.5408"/>
<text text-anchor="middle" x="335.3892" y="-147.4209" font-family="Times,serif" font-size="14.00" fill="#000000">w<tspan dy="3" font-size="10">6→AR</tspan></text>
</g>
<!-- 7 -->
<g id="node9" class="node">
<title>7</title>
<ellipse fill="none" stroke="#000000" cx="531.9862" cy="-70.5798" rx="84.6218" ry="25.4118"/>
<text text-anchor="middle" x="531.9862" y="-73.3798" font-family="Times,serif" font-size="14.00" fill="#000000">pallets/flask</text>
<text text-anchor="middle" x="531.9862" y="-59.3798" font-family="Times,serif" font-size="14.00" fill="#000000">x<tspan dy="3" font-size="10">7</tspan></text>
</g>
<!-- 7&#45;&gt;6019034 -->
<g id="edge8" class="edge">
<title>7&#45;&gt;6019034</title>
<path fill="none" stroke="#000000" d="M514.2815,-95.8705C491.4261,-128.5188 451.5855,-185.4299 426.2117,-221.6756"/>
<polygon fill="#000000" stroke="#000000" points="423.272,-219.772 420.4043,-229.9713 429.0065,-223.7864 423.272,-219.772"/>
<text text-anchor="middle" x="447.2825" y="-146.2662" font-family="Times,serif" font-size="14.00" fill="#000000">w<tspan dy="3" font-size="10">7→AR</tspan></text>
</g>
<!-- 8 -->
<g id="node10" class="node">
<title>8</title>
<ellipse fill="none" stroke="#000000" cx="729.5216" cy="-89.3825" rx="87.0717" ry="25.4118"/>
<text text-anchor="middle" x="729.5216" y="-92.1825" font-family="Times,serif" font-size="14.00" fill="#000000">&gt;200 other</text>
<text text-anchor="middle" x="729.5216" y="-78.1825" font-family="Times,serif" font-size="14.00" fill="#000000">x<tspan dy="3" font-size="10">...</tspan></text>
</g>
<!-- 8&#45;&gt;6019034 -->
<g id="edge9" class="edge">
<title>8&#45;&gt;6019034</title>
<path fill="none" stroke="#000000" d="M685.785,-111.5804C626.3526,-141.7443 520.1678,-195.6367 456.1036,-228.1514"/>
<polygon fill="#000000" stroke="#000000" points="454.3009,-225.1413 446.9677,-232.7881 457.469,-231.3833 454.3009,-225.1413"/>
<text text-anchor="middle" x="600.1895" y="-175.7156" font-family="Times,serif" font-size="14.00" fill="#000000">w<tspan dy="3" font-size="10">...→AR</tspan></text>
</g>
</g>
</svg>
